<?xml version="1.0" standalone="no"?>
<!DOCTYPE svg PUBLIC "-//W3C//DTD SVG 20010904//EN"
 "http://www.w3.org/TR/2001/REC-SVG-20010904/DTD/svg10.dtd">
<svg version="1.0" xmlns="http://www.w3.org/2000/svg"
 width="167.000000pt" height="114.000000pt" viewBox="0 0 167.000000 114.000000"
 preserveAspectRatio="xMidYMid meet">

<g transform="translate(0.000000,114.000000) scale(0.100000,-0.100000)"
fill="#000000" stroke="none">
<path d="M813 963 c-7 -2 -13 -11 -13 -20 0 -10 -6 -12 -19 -8 -21 6 -30 -3
-36 -36 -2 -12 -12 -27 -21 -34 -11 -7 -15 -19 -11 -29 5 -11 -2 -25 -18 -40
-29 -27 -32 -41 -9 -50 9 -3 14 -12 12 -18 -5 -15 17 -39 55 -58 23 -11 32
-12 48 -1 32 20 49 -2 49 -64 l0 -53 -127 -8 c-120 -9 -112 -9 122 -9 138 0
232 1 210 2 -22 2 -73 5 -112 9 l-73 6 0 63 c0 64 14 91 39 76 29 -18 116 33
115 68 -2 35 -17 72 -35 81 -10 6 -16 17 -13 25 10 25 -17 69 -53 88 -32 16
-84 21 -110 10z"/>
<path d="M538 523 c7 -3 16 -2 19 1 4 3 -2 6 -13 5 -11 0 -14 -3 -6 -6z"/>
<path d="M1148 523 c7 -3 16 -2 19 1 4 3 -2 6 -13 5 -11 0 -14 -3 -6 -6z"/>
<path d="M176 464 c-8 -20 -8 -148 0 -168 11 -27 34 -18 34 13 0 26 4 29 45
36 71 10 97 72 49 119 -22 22 -119 22 -128 0z m95 -24 c10 -6 19 -19 19 -29 0
-21 -19 -31 -56 -31 -20 0 -24 5 -24 28 0 43 20 53 61 32z"/>
<path d="M370 380 c0 -79 3 -100 14 -100 15 0 26 21 26 51 0 31 32 22 60 -16
14 -19 30 -35 37 -35 22 0 24 20 5 47 -18 25 -18 27 0 45 24 24 23 63 -2 88
-16 16 -33 20 -80 20 l-60 0 0 -100z m101 60 c10 -6 19 -19 19 -29 0 -21 -19
-31 -56 -31 -21 0 -24 5 -24 35 0 29 4 35 21 35 11 0 29 -5 40 -10z"/>
<path d="M601 449 c-68 -67 -17 -169 85 -169 32 0 80 44 87 79 21 102 -99 164
-172 90z m115 -25 c28 -27 27 -64 -1 -93 -34 -35 -105 1 -105 53 0 26 9 39 35
54 30 17 43 15 71 -14z"/>
<path d="M835 464 c-10 -10 -15 -29 -13 -48 3 -26 9 -33 48 -47 74 -27 61 -70
-14 -47 -20 6 -39 8 -43 4 -14 -13 26 -38 69 -43 52 -6 78 13 78 56 0 33 -11
44 -62 60 -39 13 -50 37 -22 48 8 3 27 0 41 -6 21 -10 28 -9 34 1 22 34 -84
54 -116 22z"/>
<path d="M1014 467 c-2 -7 -4 -52 -2 -98 l3 -84 70 0 c56 0 70 3 70 15 0 11
-14 16 -52 18 -49 3 -53 5 -53 28 0 22 4 24 45 24 33 0 45 4 45 15 0 11 -12
15 -45 15 -41 0 -45 2 -45 24 0 23 4 25 53 28 75 4 64 22 -16 26 -50 2 -69 -1
-73 -11z"/>
<path d="M1207 473 c-10 -10 -8 -166 2 -182 12 -19 31 -5 31 23 0 20 6 25 44
30 48 8 61 18 71 56 4 18 0 34 -15 53 -18 23 -29 27 -74 27 -29 0 -56 -3 -59
-7z m99 -37 c26 -20 8 -50 -35 -54 -28 -3 -31 -1 -31 26 0 16 3 32 7 35 11 11
38 8 59 -7z"/>
<path d="M1387 473 c-15 -14 -6 -23 23 -23 l30 0 0 -72 c0 -129 37 -136 42 -8
3 74 4 75 31 78 15 2 27 9 27 18 0 11 -16 14 -73 14 -41 0 -77 -3 -80 -7z"/>
<path d="M368 208 c-2 -7 -1 -26 2 -43 6 -28 7 -28 11 13 4 39 -4 57 -13 30z"/>
<path d="M850 186 c0 -19 3 -37 8 -40 4 -2 6 13 4 35 -5 48 -12 51 -12 5z"/>
<path d="M993 180 c0 -25 2 -35 4 -22 2 12 2 32 0 45 -2 12 -4 2 -4 -23z"/>
<path d="M209 168 c4 -28 6 -29 9 -9 2 13 0 27 -5 32 -6 6 -7 -3 -4 -23z"/>
<path d="M306 192 c-2 -4 4 -8 14 -8 10 0 16 4 14 8 -3 4 -9 8 -14 8 -5 0 -11
-4 -14 -8z"/>
<path d="M416 192 c-2 -4 4 -8 14 -8 10 0 16 4 14 8 -3 4 -9 8 -14 8 -5 0 -11
-4 -14 -8z"/>
<path d="M647 193 c-12 -12 -7 -51 7 -56 20 -8 39 18 31 43 -6 20 -25 26 -38
13z m28 -26 c0 -26 -20 -25 -23 2 -3 16 1 22 10 19 7 -3 13 -12 13 -21z"/>
<path d="M749 168 c4 -28 6 -29 9 -9 2 13 0 27 -5 32 -6 6 -7 -3 -4 -23z"/>
<path d="M1067 194 c-10 -10 -9 -42 2 -48 4 -3 6 6 3 19 -3 18 0 25 11 25 8 0
18 -5 20 -10 3 -6 4 -5 3 2 -3 15 -28 22 -39 12z"/>
<path d="M1168 169 c5 -35 8 -36 14 -5 3 14 0 27 -7 29 -7 3 -10 -5 -7 -24z"/>
<path d="M1209 168 c4 -28 6 -29 9 -9 2 13 0 27 -5 32 -6 6 -7 -3 -4 -23z"/>
<path d="M170 148 c0 -23 2 -39 5 -36 9 9 12 78 3 78 -4 0 -8 -19 -8 -42z"/>
<path d="M544 179 c1 -7 12 -16 25 -20 14 -6 20 -5 16 1 -3 6 -12 10 -20 10
-7 0 -16 5 -18 10 -3 6 -4 5 -3 -1z"/>
<path d="M612 165 c0 -16 2 -22 5 -12 2 9 2 23 0 30 -3 6 -5 -1 -5 -18z"/>
<path d="M710 165 c0 -14 2 -25 4 -25 2 0 6 11 8 25 3 14 1 25 -3 25 -5 0 -9
-11 -9 -25z"/>
<path d="M820 181 c0 -5 -9 -11 -20 -14 -11 -3 -20 -11 -19 -19 0 -10 2 -10 6
0 7 18 31 15 36 -5 3 -10 5 -3 6 15 0 17 -1 32 -4 32 -3 0 -5 -4 -5 -9z"/>
<path d="M925 179 c-4 -6 -5 -12 -2 -15 2 -3 7 2 10 11 7 17 1 20 -8 4z"/>
<path d="M1028 165 c2 -14 6 -25 8 -25 2 0 4 11 4 25 0 14 -4 25 -9 25 -4 0
-6 -11 -3 -25z"/>
<path d="M1130 165 c0 -14 2 -25 4 -25 2 0 6 11 8 25 3 14 1 25 -3 25 -5 0 -9
-11 -9 -25z"/>
<path d="M1392 165 c0 -16 2 -22 5 -12 2 9 2 23 0 30 -3 6 -5 -1 -5 -18z"/>
<path d="M1470 171 c0 -7 -4 -9 -10 -6 -12 8 -13 -5 -1 -23 6 -10 10 -8 14 9
4 13 4 25 2 28 -3 2 -5 -1 -5 -8z"/>
<path d="M500 161 c13 -10 13 -12 0 -22 -13 -9 -13 -10 0 -6 8 2 15 10 15 17
0 7 -7 15 -15 17 -13 4 -13 3 0 -6z"/>
<path d="M1300 140 c-9 -6 -10 -10 -3 -10 6 0 15 5 18 10 8 12 4 12 -15 0z"/>
</g>
</svg>
