<svg xmlns="http://www.w3.org/2000/svg" viewBox="0 0 81.23927 62.25794"><defs><style>.cls-1{fill:#39b54a;}</style></defs><g id="Слой_2" data-name="Слой 2"><g id="Слой_1-2" data-name="Слой 1"><path class="cls-1" d="M74.46933,48.71806V45.765a3.87433,3.87433,0,0,0,1.49863-.93786,3.97605,3.97605,0,0,0,1.20934-2.879,4.06355,4.06355,0,0,0-2.73529-3.8214,33.67591,33.67591,0,0,0-9.90284-22.83614c-.29607-.28817-.59936-.566-.90174-.84444V12.16039A5.41576,5.41576,0,0,0,54.38878,8.339a33.23994,33.23994,0,0,0-7.06443-2.25212,6.73322,6.73322,0,0,0-13.40425,0A33.22506,33.22506,0,0,0,26.855,8.339a5.416,5.416,0,0,0-9.25315,3.82141v2.28575c-.3051.283-.60817.56056-.91755.86114A33.65817,33.65817,0,0,0,6.8,38.12333,3.87193,3.87193,0,0,0,5.274,39.0709a3.973,3.973,0,0,0-1.212,2.87722,4.06029,4.06029,0,0,0,2.708,3.8126v2.95734a6.76994,6.76994,0,0,0,0,13.53988H74.46933a6.76994,6.76994,0,1,0,0-13.53988Zm-43.32761-4.062A9.47827,9.47827,0,1,1,40.61963,54.134a9.47968,9.47968,0,0,1-9.47791-9.47792Zm21.58369,1.354H71.76135v2.708H52.09513a12.114,12.114,0,0,0,.63028-2.708ZM74.055,42.91239a1.29648,1.29648,0,0,1-.93967.38972H52.72541a12.114,12.114,0,0,0-.63028-2.708H73.11534a1.35449,1.35449,0,0,1,1.354,1.354,1.32236,1.32236,0,0,1-.41432.96427Zm-15.83354-33.46a2.70753,2.70753,0,0,1,2.708,2.708V25.70027a2.708,2.708,0,0,1-5.416,0V12.16039a2.70752,2.70752,0,0,1,2.708-2.708Zm0,21.66381a5.4162,5.4162,0,0,0,5.416-5.41595V18.31675a30.92432,30.92432,0,0,1,8.09571,19.56941H50.74633a12.27566,12.27566,0,0,0-4.07347-3.79139,6.73394,6.73394,0,0,0,.71671-2.97855V8.861a30.5019,30.5019,0,0,1,5.64251,1.83713,5.30063,5.30063,0,0,0-.22656,1.46231V25.70027a5.4162,5.4162,0,0,0,5.41595,5.41595ZM36.55767,6.74444a4.062,4.062,0,1,1,8.12392,0V31.11622a4.05957,4.05957,0,0,1-.48043,1.89513,12.17478,12.17478,0,0,0-7.163,0,4.05958,4.05958,0,0,1-.48044-1.89513ZM20.30981,12.16039a2.708,2.708,0,0,1,5.416,0V25.70027a2.708,2.708,0,0,1-5.416,0Zm-2.708,6.15545v7.38443a5.416,5.416,0,1,0,10.8319,0V12.16039a5.30026,5.30026,0,0,0-.22657-1.46231A30.50224,30.50224,0,0,1,33.84969,8.861V31.11622a6.74707,6.74707,0,0,0,.71761,2.97855,12.27288,12.27288,0,0,0-4.07257,3.79139H9.50612a30.914,30.914,0,0,1,8.09572-19.57032ZM7.18426,40.98385a1.29645,1.29645,0,0,1,.93967-.38972h21.0202a12.114,12.114,0,0,0-.63028,2.708H8.12393a1.35448,1.35448,0,0,1-1.354-1.354,1.32229,1.32229,0,0,1,.41432-.96427Zm2.29365,5.02623H28.51385a12.114,12.114,0,0,0,.63028,2.708H9.47791ZM77.35106,58.35552A4.08928,4.08928,0,0,1,74.46933,59.55H6.76994a4.062,4.062,0,0,1,0-8.12393H30.49473a12.172,12.172,0,0,0,20.2498,0h23.7248a4.0621,4.0621,0,0,1,2.88173,6.92949Z"/><path class="cls-1" d="M40.61963,51.426a6.76972,6.76972,0,1,0-6.76994-6.76994A6.769,6.769,0,0,0,40.61963,51.426Zm0-10.8319a4.06178,4.06178,0,1,1-4.062,4.062,4.06162,4.06162,0,0,1,4.062-4.062Z"/></g></g></svg>